<svg id="Layer_1" enable-background="new 0 0 66 66" height="512" viewBox="0 0 66 66" width="512" xmlns="http://www.w3.org/2000/svg"><g><path fill="currentColor" d="m56.26 24.15v-1.34c1.71-.4 3-1.93 3-3.76 0-2.12-1.74-3.86-3.87-3.86-2.12 0-3.86 1.74-3.86 3.86 0 1.76 1.18 3.23 2.79 3.69v1.41c0 .96-.79 1.75-1.75 1.75h-10.8v1.94h10.8c2.03 0 3.69-1.66 3.69-3.69z"/><path fill="currentColor" d="m48.89 15.1v-1.34c1.71-.4 3-1.93 3-3.76 0-2.12-1.74-3.85-3.87-3.85-2.12 0-3.86 1.73-3.86 3.85 0 1.76 1.18 3.23 2.79 3.69v1.41c0 .96-.79 1.75-1.75 1.75h-3.43v1.94h3.43c2.03 0 3.69-1.66 3.69-3.69z"/><path fill="currentColor" d="m56.26 48.45v-1.34c0-2.03-1.66-3.68-3.68-3.68h-10.8v1.94h10.8c.96 0 1.75.79 1.75 1.75v1.41c-1.61.47-2.79 1.94-2.79 3.69 0 2.12 1.74 3.86 3.86 3.86 2.13 0 3.87-1.74 3.87-3.86-.02-1.84-1.31-3.37-3.01-3.77z"/><path fill="currentColor" d="m47.26 54.91v-1.34c0-2.04-1.65-3.68-3.68-3.68h-1.8v1.94h1.8c.96 0 1.75.78 1.75 1.75v1.4c-1.6.48-2.78 1.94-2.78 3.7 0 2.12 1.73 3.85 3.85 3.85 2.13 0 3.87-1.73 3.87-3.85-.02-1.84-1.3-3.37-3.01-3.77z"/><path fill="currentColor" d="m55.28 39.49c2.13 0 3.87-1.74 3.87-3.87 0-2.12-1.74-3.85-3.87-3.85-1.78 0-3.29 1.23-3.71 2.89h-9.79v1.94h9.79c.43 1.66 1.92 2.89 3.71 2.89z"/><path fill="currentColor" d="m31.38 3.48c-4.62 0-8.37 3.75-8.37 8.45 0 .48.08.96.16 1.43-.88-.32-1.83-.48-2.87-.48-4.62 0-8.37 3.75-8.37 8.45 0 .5.05.98.14 1.46.01.01.03.02.04.03 1.42 1.5 3.35 2.32 5.43 2.32.54 0 .97.43.97.97s-.43.97-.97.97c-2.16 0-4.19-.72-5.85-2.03-2.92 1.3-4.94 4.22-4.94 7.61 0 3.91 2.71 7.25 6.38 8.13-.8 1.28-1.2 2.71-1.2 4.3 0 4.54 3.75 8.37 8.37 8.37.42 0 .84-.04 1.26-.1.97-2.94 3.32-5.2 6.31-6.03-1.19-1.14-2.07-2.6-2.52-4.24-.87.72-1.93 1.24-3.13 1.47-.06.01-.12.02-.18.02-.46 0-.86-.32-.95-.79-.1-.53.24-1.03.77-1.14 1.37-.26 2.49-1.06 3.21-2.13.04-.15.11-.28.22-.39.53-.96.76-2.1.56-3.29-.09-.53.27-1.03.8-1.12s1.03.27 1.12.8c.28 1.66-.03 3.26-.78 4.61.27 3.87 3.47 6.85 7.43 6.85.54 0 .97.43.97.97s-.43.97-.97.97c-1.54 0-2.99-.36-4.27-1-3.52.12-6.35 2.65-6.99 6.01.7 3.92 4.11 6.9 8.23 6.9 4.62 0 8.45-3.75 8.45-8.37v-21.36c-.24.02-.48.05-.71.05-1.28 0-2.54-.34-3.68-.99-1.34-.78-2.38-1.94-3.01-3.34-1.12.65-2.38.99-3.7.99-.13 0-.26 0-.39-.01-.54-.03-.95-.48-.92-1.02s.49-.94 1.02-.92c1.45.07 2.85-.42 3.93-1.38 1.09-.97 1.73-2.32 1.8-3.79.03-.54.5-.95 1.02-.92.53.03.95.48.92 1.02-.09 1.82-.83 3.49-2.07 4.77.43 1.23 1.25 2.26 2.38 2.91 1.04.6 2.23.82 3.42.66v-18.2c-.02-4.71-3.85-8.45-8.47-8.45z"/></g></svg>