<svg id="Icons" height="512" viewBox="0 0 60 60" width="512" xmlns="http://www.w3.org/2000/svg"><path fill="currentColor" d="m39.666 6.309-1.188 4.161a2.1 2.1 0 0 1 -3.512.91l-2.093-2.093-1.873 1.248v8.465a1 1 0 0 1 -2 0v-8.465l-1.873-1.248-2.093 2.093a2.105 2.105 0 0 1 -3.512-.91l-1.188-4.161-8.447 3.091c1.671 1.943 4.113 6.356 4.113 15.6v33h28v-33c0-9.245 2.443-13.658 4.114-15.6z"/><path fill="currentColor" d="m30 8.798 2.198-1.465 2.286-5.333h-8.968l2.286 5.333z"/><path fill="currentColor" d="m36.479 9.993a.093.093 0 0 0 .075-.072l1.346-4.721-1.664-2.22-2.05 4.791 2.194 2.195a.1.1 0 0 0 .099.027z"/><path fill="currentColor" d="m23.521 9.993a.1.1 0 0 0 .1-.027l2.194-2.195-2.053-4.788-1.662 2.217 1.348 4.718a.093.093 0 0 0 .073.075z"/><path fill="currentColor" d="m8.515 29.742a.947.947 0 0 0 .734.258.974.974 0 0 0 .69-.356l4.053-4.989c-.065-8.849-2.532-12.727-3.792-14.125l-8.04 12.443a.987.987 0 0 0 .175 1.281z"/><path fill="currentColor" d="m49.8 10.53c-1.257 1.4-3.724 5.277-3.789 14.124l4.058 5a.97.97 0 0 0 .685.35.953.953 0 0 0 .728-.25l6.187-5.5a.985.985 0 0 0 .176-1.277z"/></svg>