<svg fill="none" height="24" viewBox="0 0 24 24" width="24" xmlns="http://www.w3.org/2000/svg"><path clip-rule="evenodd" d="m5.29289 2.29289c.39053-.39052 1.02369-.39052 1.41422 0l5.29289 5.2929 5.2929-5.2929c.3905-.39052 1.0237-.39052 1.4142 0 .3905.39053.3905 1.02369 0 1.41422l-5.2929 5.29289c-.781.78105-2.0474.78105-2.8284 0l-5.29291-5.29289c-.39052-.39053-.39052-1.02369 0-1.41422zm0 18.00001 5.29291-5.2929c.781-.781 2.0474-.781 2.8284 0l5.2929 5.2929c.3905.3905.3905 1.0237 0 1.4142s-1.0237.3905-1.4142 0l-5.2929-5.2929-5.29289 5.2929c-.39053.3905-1.02369.3905-1.41422 0-.39052-.3905-.39052-1.0237 0-1.4142z" fill="currentColor" fill-rule="evenodd"/></svg>