<svg fill="none" height="24" viewBox="0 0 24 24" width="24" xmlns="http://www.w3.org/2000/svg"><path clip-rule="evenodd" d="m10.5858 3c.781-.78105 2.0474-.78105 2.8284 0l5.2929 5.29289c.3905.39053.3905 1.02369 0 1.41422-.3905.39049-1.0237.39049-1.4142 0l-5.2929-5.2929-5.29289 5.2929c-.39053.39049-1.02369.39049-1.41422 0-.39052-.39053-.39052-1.02369 0-1.41421zm-5.29291 11.2929c.39053-.3905 1.02369-.3905 1.41422 0l5.29289 5.2929 5.2929-5.2929c.3905-.3905 1.0237-.3905 1.4142 0s.3905 1.0237 0 1.4142l-5.2929 5.2929c-.781.7811-2.0474.7811-2.8284 0l-5.29291-5.2929c-.39052-.3905-.39052-1.0237 0-1.4142z" fill="currentColor" fill-rule="evenodd"/></svg>