<svg id="Layer_1" enable-background="new 0 0 512 512" viewBox="0 0 512 512" xmlns="http://www.w3.org/2000/svg"><path fill="currentColor" d="m466.454 17.87c-46.598-11.013-95.571-16.842-145.769-17.36.359 74.6-11.784 130.87-37.02 171.555 8.954 8.099 19.091 13.041 30.812 15.057 3.537.613 6.135 3.685 6.135 7.286v22.206c22.058 1.267 42.902 8.162 58.065 19.387 3.284 2.428 3.97 7.053 1.542 10.337-1.447 1.964-3.685 2.999-5.945 2.999-1.531 0-3.073-.475-4.393-1.457-12.713-9.408-30.368-15.247-49.269-16.462v73.143c46.017-3.189 86.923-35.943 114.335-85.772.18-.423.401-.834.655-1.214 21.815-40.209 34.908-91.316 34.908-146.899-.001-17.876-1.364-35.616-4.056-52.806zm-40.41 74.928c-3.295 19.439-20.031 33.546-39.797 33.546-19.725 0-36.461-14.096-39.787-33.525-.697-4.023 2.006-7.845 6.029-8.542s7.846 2.017 8.542 6.04c2.112 12.312 12.713 21.245 25.215 21.245 12.523 0 23.135-8.933 25.215-21.234.686-4.023 4.498-6.737 8.532-6.051 4.024.686 6.727 4.497 6.051 8.521zm-120.227 211.764v-46.376c-22.248-1.235-42.659-8.004-58.086-19.397-3.284-2.429-3.981-7.053-1.552-10.337s7.054-3.981 10.337-1.552c12.745 9.408 30.4 15.247 49.301 16.472v-42.986c-14.033-3.601-26.461-11.045-36.999-22.174-2.376-2.503-2.703-6.325-.771-9.197 25.817-38.531 38.224-93.712 37.855-168.514-50.272.517-99.32 6.346-145.959 17.37-2.682 17.19-4.044 34.93-4.044 52.807-.001 125.42 66.596 228.118 149.918 233.884zm-108.748-184.364c-.697 4.023-4.509 6.737-8.542 6.04-4.023-.686-6.726-4.509-6.04-8.532 3.326-19.429 20.062-33.536 39.797-33.536s36.461 14.107 39.787 33.536c.697 4.023-2.006 7.845-6.04 8.532-.412.074-.834.106-1.246.106-3.537 0-6.663-2.545-7.286-6.146-2.101-12.312-12.713-21.245-25.215-21.245-12.502.001-23.114 8.934-25.215 21.245zm211.827 204.067c-12.544 30.252-16.103 62.426-10.844 98.348 3.907 26.757 12.882 55.921 27.359 88.887h-203.022c-4.73-22.375-11.678-45.542-30.516-66.058-2.471-2.682-6.526-3.168-9.556-1.14-18.193 12.175-74.896 32.902-92.741 18.848-10-7.866-5.575-27.211-.106-42.057.76-2.059.56-4.35-.539-6.251-1.088-1.901-2.978-3.21-5.142-3.59-11.235-1.943-13.727-4.868-14.276-6.03-.792-1.679-.612-5.649 4.741-15.015 1.911-3.347.929-7.603-2.249-9.767-7.318-5.005-11.034-9.007-11.362-12.238-.391-3.886 3.421-9.905 11.657-18.383 1.647-1.7 2.386-4.087 1.985-6.42-.412-2.333-1.911-4.34-4.044-5.375-17.053-8.331-26.313-16.514-28.32-25.004-2.946-12.439 9.641-28.943 24.223-48.055 6.652-8.711 14.192-18.595 21.171-29.281 1.531-2.344 1.605-5.354.19-7.771-19.651-33.536-23.22-70.113-10.052-102.973 12.777-31.836 39.935-52.268 63.82-64.717-.095 3.474-.169 6.958-.169 10.454 0 65.984 17.592 128.125 49.533 174.965 32.533 47.696 76.068 73.967 122.581 73.967 44 0 85.329-23.526 117.196-66.449-4.201 22.966-11.392 46.777-21.518 71.105z"/></svg>