<svg id="Layer_1" enable-background="new 0 0 512 512" height="512" viewBox="0 0 512 512" width="512" xmlns="http://www.w3.org/2000/svg"><path clip-rule="evenodd" fill="currentColor" d="m44.389 220.363 112.168-34.293c-29.193-23.195-58.388-46.392-87.582-69.588l-51.529 15.754zm0 0h450.165v257.961c0 18.522-15.155 33.676-33.677 33.676h-382.811c-18.522 0-33.677-15.155-33.677-33.676zm277.604 145.818-52.522-30.323-52.521-30.323v60.646 60.647l52.521-30.323zm-125.891-192.202c-29.194-23.196-58.389-46.392-87.582-69.588l83.477-25.521c29.193 23.196 58.389 46.391 87.581 69.588zm123.022-37.611 83.477-25.521-2.527-2.008-85.054-67.581-83.477 25.522c29.193 23.196 58.387 46.392 87.581 69.588zm123.022-37.612c-29.194-23.196-58.388-46.392-87.581-69.588l95.405-29.168 26.943 88.127z" /></svg>