<svg id="Layer_1" enable-background="new 0 0 100 100" viewBox="0 0 100 100" xmlns="http://www.w3.org/2000/svg"><path fill="currentColor" d="m81.4533005 89.1124496v-8.3875427h6.8007202c.8763809 0 1.5868225-.7104416 1.5868225-1.5868225v-5.2139053c0-.8763733-.7104416-1.5868225-1.5868225-1.5868225h-21.9889908c-.8763809 0-1.5868225.7104492-1.5868225 1.5868225v5.2139053c0 .8763809.7104416 1.5868225 1.5868225 1.5868225h6.8007202v8.3875427h-25.1626358v-34.6096649c2.5162621 1.2581329 5.4519043 2.5162659 8.3875465 2.5162659 9.2262993 0 16.7750893-7.5487938 16.7750893-16.7750931 0-7.9681664-5.4519043-14.6782055-13.0006981-16.3557148 0-.8387527.4193802-1.6775093.4193802-2.516264 0-10.4844322-8.3875427-18.8719787-18.8719787-18.8719787s-18.8719788 8.3875456-18.8719788 18.8719788c0 .8387547 0 1.6775112.4193764 2.516264-7.5487919 1.6775093-13.0006971 8.3875484-13.0006971 16.3557148 0 9.2262993 7.5487947 16.7750931 16.7750931 16.7750931 2.9356403 0 5.8712826-.8387527 8.3875484-2.5162659v34.6096649h-27.805101c-.8567667 0-1.5513134.6945496-1.5513134 1.5513153v5.2849197c0 .8567657.6945467 1.5513153 1.5513134 1.5513153h84.9666138c.8567657 0 1.5513153-.6945496 1.5513153-1.5513153v-5.2849197c0-.8567657-.6945496-1.5513153-1.5513153-1.5513153h-11.0300078z"/></svg>