<svg id="Capa_1" enable-background="new 0 0 24 24" height="512" viewBox="0 0 24 24" width="512" xmlns="http://www.w3.org/2000/svg"><g><path fill="currentColor" d="m12 2c-5.523 0-10 4.477-10 10s4.477 10 10 10 10-4.477 10-10-4.477-10-10-10zm0 2c4.418 0 8 3.582 8 8-.001.167-.007.334-.018.5h-1.008-.974v-1h.982c-.252-3.469-3.013-6.227-6.482-6.475v.975.5h-1v-.5-.982c-3.469.252-6.227 3.013-6.475 6.482h.975v1h-.982-.993c-.013-.166-.022-.333-.025-.5 0-4.418 3.582-8 8-8zm4.242 3.758-.354 1.061-2.924 2.924c.024.083.036.17.036.257 0 .552-.448 1-1 1s-1-.448-1-1 .448-1 1-1c.087 0 .174.012.258.035l2.924-2.924s1.06-.353 1.06-.353z"/></g></svg>