<svg id="Layer_1" enable-background="new 0 0 512 512" height="512" viewBox="0 0 512 512" width="512" xmlns="http://www.w3.org/2000/svg"><g id="Layer_2_00000126301766817185196860000012824189393180897932_"><g id="binoculars"><path id="icon" d="m280.1 368.5h-48.2c-1 1.7-3.3 5.7-5.6 9.8-35.7 61.4-116.5 79.7-174.5 39.5-58.3-40.5-68.6-121.4-24.8-177.5 17.6-22.6 30.6-48.8 44.9-73.8 10.8-18.9 25.2-33.2 44.6-43.1 4.2-2.5 7.4-6.3 9-10.9 9.6-29.6 35.7-45.2 64.1-37.7 27.5 7.3 41.6 33.5 36.6 63.6-1.2 7 5.5 15.2 8.4 22.9 3.3 8.9 9.3 10 18.4 11 23 2.4 25.6-15.8 32-27.6 2.2-4 .4-6.5-.1-9.6-6.5-37.9 6.9-51.7 34.1-59.9 28-8.4 55.6 7.1 65.4 35.7 1.6 4.8 6.2 9.9 10.8 12.3 17.9 9.5 32 22.3 42.5 39.7 18 29.9 36.4 59.6 55.1 89.1 36.2 56.9 19.8 132.6-37.1 168.3-56.8 35.8-131.9 18.7-167.7-38.2-.1-.2-.2-.3-.3-.5-3-4.7-5.7-9.7-7.6-13.1zm-81-49.9c.5-43.3-34.2-78.9-77.5-79.5-42.6-.6-79.2 34.9-79.9 77.7-.7 43.4 35.1 79.7 78.7 79.8 43.6.2 78.4-34.2 78.7-78zm270.4-.7c0-43.1-35.4-78.6-78.3-78.8-42.8-.2-78.6 35.2-79.3 78.3-.6 43.3 35.5 79.3 79.4 79.2 43.3-.1 78.3-35.3 78.2-78.7zm-215.7-16.8c-8.8.7-14.2 6.7-14.8 16.6-.5 8.8 6.2 16.4 15.1 17h2.2c10.1-.6 15.9-6.2 16.2-16.6.2-10.2-7.1-17.2-18.7-17z"/></g></g></svg>