<?xml version="1.0" encoding="UTF-8" standalone="no"?>
<!-- Created with Inkscape (http://www.inkscape.org/) -->

<svg
   version="1.1"
   id="svg9"
   xml:space="preserve"
   width="682.66669"
   height="682.66669"
   viewBox="0 0 682.66669 682.66669"
   xmlns="http://www.w3.org/2000/svg"
   xmlns:svg="http://www.w3.org/2000/svg"><defs
     id="defs13"><clipPath
       clipPathUnits="userSpaceOnUse"
       id="clipPath23"><path
         d="M 0,512 H 512 V 0 H 0 Z"
         id="path21" /></clipPath></defs><g
     id="g15"
     transform="matrix(1.3333333,0,0,-1.3333333,0,682.66667)"><g
       id="g17"><g
         id="g19"
         clip-path="url(#clipPath23)"><g
           id="g25"
           transform="translate(334.6665,334.6665)"><path
             d="m 0,0 c 0,43.447 35.22,78.667 78.667,78.667 43.446,0 78.666,-35.22 78.666,-78.667 0,-43.446 -35.22,-78.667 -78.666,-78.667 h -313.334"
             style="fill:none;stroke:currentColor;stroke-width:40;stroke-linecap:round;stroke-linejoin:round;stroke-miterlimit:10;stroke-dasharray:none;stroke-opacity:1"
             id="path27" /></g><g
           id="g29"
           transform="translate(111.3335,413.3335)"><path
             d="m 0,0 c 0,43.446 35.22,78.667 78.667,78.667 43.446,0 78.666,-35.221 78.666,-78.667 0,-43.447 -35.22,-78.667 -78.666,-78.667 h -170"
             style="fill:none;stroke:currentColor;stroke-width:40;stroke-linecap:round;stroke-linejoin:round;stroke-miterlimit:10;stroke-dasharray:none;stroke-opacity:1"
             id="path31" /></g><g
           id="g33"
           transform="translate(256,98.6665)"><path
             d="m 0,0 c 0,-43.446 35.22,-78.667 78.667,-78.667 43.446,0 78.666,35.221 78.666,78.667 0,43.447 -35.22,78.667 -78.666,78.667 H -236"
             style="fill:none;stroke:currentColor;stroke-width:40;stroke-linecap:round;stroke-linejoin:round;stroke-miterlimit:10;stroke-dasharray:none;stroke-opacity:1"
             id="path35" /></g></g></g></g></svg>
