<svg id="Glyph" height="512" viewBox="0 0 64 64" width="512" xmlns="http://www.w3.org/2000/svg"><path fill="currentColor" d="m59.41247 10.03153a32.82547 32.82547 0 0 0 -21.07847-1.75194c-1.33235 2.27061-3.18312 4.34216-3.77989 6.89733a.97684.97684 0 0 1 -1.64147.48282.98925.98925 0 0 1 -.269-.88974c.39053-2.10233 1.71815-3.81748 2.81417-5.62823a35.71778 35.71778 0 0 0 -6.19381 2.89684c-.40693.82082-1.00009 2.09-1.53121 3.3108-1.27751 2.85087-1.8806 4.78828-1.50363 7.71129a.96809.96809 0 0 1 -.83459 1.09671c-2.11809.26509-1.01042-5.3622-.65542-6.53184.22777-.72424.80718-2.14512 1.44171-3.56595-3.04531 2.36559-5.35758 4.2416-6.51137 6.13846l-1.57932 8.42192a4.76741 4.76741 0 0 1 -.607-2.41413.973.973 0 0 0 -1.614-.74491 17.07452 17.07452 0 0 0 -3.73142 4.60058 17.8498 17.8498 0 0 0 -2.06233 10.284 15.8258 15.8258 0 0 0 .60785 4.11061.95091.95091 0 0 0 -.35011.302 103.34525 103.34525 0 0 0 -6.22516 10.53196.97543.97543 0 1 0 1.73512.89176 103.71231 103.71231 0 0 1 35.20158-39.02543.9748.9748 0 0 1 1.08285 1.621 104.07188 104.07188 0 0 0 -29.22428 29.1 18.38611 18.38611 0 0 0 12.96713-.02758.98241.98241 0 0 0 .069-1.79333 5.6329 5.6329 0 0 1 -1.814-1.34491c2.95633.72875 6.57867.56853 9.16668-1.69014 2.56579-2.05522 7.27676-5.93839 10.03572-8.71117a.98229.98229 0 0 0 -.77259-1.65538 7.73784 7.73784 0 0 1 -3.40035-.53108 8.09922 8.09922 0 0 1 -1.28986-.66905 15.49019 15.49019 0 0 0 6.97327-.66908c2.6383-.95281 4.4363-2.99027 6.11106-5.20073a14.46844 14.46844 0 0 1 -2.91754.50365 33.31939 33.31939 0 0 1 -5.70415-.2828.97841.97841 0 0 1 .269-1.9382 25.54933 25.54933 0 0 0 6.28355.17248c1.20885-.2388 2.63382-.60938 4.06945-.97942 2.03386-2.68319 3.4804-4.02212 5.36619-7.71127a25.85829 25.85829 0 0 0 1.64151-4.13843.97259.97259 0 0 0 -.54487-1.17947z"/></svg>