<svg id="Capa_1" enable-background="new 0 0 512 512" height="512" viewBox="0 0 512 512" width="512" xmlns="http://www.w3.org/2000/svg"><g><g><path fill="currentColor" d="m256 165.819c-19.835 0-39.151 3.711-57.412 11.03-5.126 2.055-7.617 7.876-5.562 13.003 2.055 5.126 7.877 7.614 13.002 5.562 15.884-6.366 32.697-9.595 49.971-9.595 74.104 0 134.392 60.288 134.392 134.392 0 35.191-13.388 68.208-37.777 93.399h-193.229c-24.389-25.19-37.777-58.208-37.777-93.399 0-25.545 7.193-50.392 20.801-71.855 2.957-4.664 1.573-10.843-3.091-13.8-4.663-2.958-10.843-1.573-13.8 3.091-15.642 24.671-23.91 53.222-23.91 82.564 0 38.079 13.644 73.942 38.639 102.161-2.1 2.518-3.713 5.476-4.656 8.752l-14.375 49.98c-2.121 7.373-.69 15.117 3.925 21.247 4.615 6.129 11.663 9.645 19.335 9.645h223.046c7.672 0 14.72-3.516 19.335-9.645 4.615-6.13 6.045-13.874 3.925-21.247l-14.375-49.98c-.942-3.276-2.555-6.235-4.655-8.752 24.995-28.22 38.639-64.082 38.639-102.161.001-85.132-69.259-154.392-154.391-154.392zm114.88 324.502c-.471.626-1.533 1.675-3.357 1.675h-223.046c-1.824 0-2.887-1.049-3.357-1.675-.471-.625-1.186-1.937-.682-3.689l14.375-49.98c.515-1.79 2.176-3.041 4.039-3.041h194.298c1.863 0 3.523 1.251 4.039 3.041l14.375 49.98c.502 1.752-.212 3.064-.684 3.689z"/><path fill="currentColor" d="m308.323 303.215c0 5.522 4.477 10 10 10 3.012 0 5.462 2.45 5.462 5.462 0 5.522 4.477 10 10 10s10-4.478 10-10c0-3.012 2.45-5.462 5.462-5.462 5.523 0 10-4.478 10-10s-4.477-10-10-10c-3.012 0-5.462-2.45-5.462-5.462 0-5.522-4.477-10-10-10s-10 4.478-10 10c0 3.012-2.45 5.462-5.462 5.462-5.523 0-10 4.478-10 10z"/><path fill="currentColor" d="m307.797 239.733c-6.804 0-12.339-5.535-12.339-12.339 0-5.522-4.477-10-10-10s-10 4.478-10 10c0 6.76-5.464 12.268-12.208 12.339-.043 0-.086 0-.13 0v.001s-.001 0-.002 0c-5.522 0-9.999 4.478-9.999 10 0 5.523 4.478 10 10 10 6.804 0 12.339 5.535 12.339 12.339 0 5.522 4.477 10 10 10s10-4.478 10-10c0-6.76 5.464-12.268 12.208-12.339h.13v-.001h.002c5.522 0 9.999-4.478 9.999-10 0-5.523-4.477-10-10-10z"/><path fill="currentColor" d="m508.261 130.31c-11.565-9.286-21.857-20.049-30.589-31.987-24.056-32.892-56.806-58.187-94.711-73.149l-58.414-23.06c-14.86-5.864-31.771.892-38.499 15.382-3.425 7.379-3.749 15.641-.91 23.264 2.838 7.623 8.485 13.662 15.9 17.004l68.575 30.906c1.471.663 2.911 1.386 4.316 2.165-1.543.702-3.052 1.537-4.51 2.507-14.229 9.465-18.368 28.913-9.225 43.353l31.801 50.223c4.669 29.306 24.499 54.09 52.203 65.026 10.883 4.296 22.241 7.523 33.759 9.594l22.274 4.002c.588.105 1.18.157 1.769.157 2.327 0 4.602-.812 6.416-2.329 2.272-1.9 3.584-4.709 3.584-7.671v-117.589c0-3.031-1.375-5.899-3.739-7.798zm-16.261 113.429-10.506-1.888c-10.219-1.836-20.296-4.699-29.952-8.512-21.656-8.549-37-28.199-40.045-51.282-.189-1.438-.689-2.817-1.465-4.042l-32.94-52.021c-3.375-5.329-1.847-12.508 3.405-16.001 2.001-1.332 4.256-1.972 6.487-1.972 3.625 0 7.184 1.69 9.473 4.854l34.932 48.285c3.237 4.475 9.488 5.478 13.963 2.241s5.478-9.489 2.241-13.964l-38.278-53.221c-8.03-11.204-18.918-20.12-31.485-25.783l-68.574-30.906c-2.507-1.13-4.416-3.171-5.375-5.747-.959-2.577-.85-5.37.308-7.865 2.274-4.898 7.991-7.182 13.015-5.199l58.414 23.06c34.382 13.573 64.09 36.518 85.911 66.354 8.816 12.054 19.051 23.033 30.471 32.694z"/><path fill="currentColor" d="m151.806 136.694c9.143-14.439 5.004-33.888-9.225-43.353-1.458-.97-2.967-1.805-4.511-2.507 1.406-.779 2.846-1.503 4.317-2.165l68.574-30.906c7.416-3.342 13.062-9.381 15.9-17.004s2.515-15.885-.91-23.263c-6.726-14.491-23.638-21.246-38.498-15.382l-58.414 23.06c-37.905 14.963-70.655 40.258-94.71 73.149-8.732 11.938-19.024 22.701-30.589 31.987-2.365 1.899-3.74 4.767-3.74 7.798v117.588c0 2.962 1.312 5.771 3.584 7.671 1.813 1.517 4.088 2.329 6.416 2.329.588 0 1.18-.052 1.769-.157l22.274-4.002c11.518-2.07 22.876-5.298 33.759-9.594 27.704-10.937 47.533-35.721 52.203-65.026zm-51.303 45.363c-3.044 23.083-18.389 42.733-40.045 51.282-9.656 3.812-19.733 6.676-29.952 8.512l-10.506 1.888v-100.915c11.42-9.661 21.655-20.641 30.472-32.694 21.82-29.836 51.528-52.78 85.911-66.353l58.413-23.06c5.025-1.98 10.741.301 13.015 5.2 1.158 2.494 1.267 5.287.308 7.864-.959 2.576-2.868 4.617-5.375 5.747l-68.574 30.907c-12.567 5.663-23.455 14.579-31.485 25.782l-38.278 53.222c-3.237 4.475-2.234 10.727 2.241 13.964 4.475 3.236 10.726 2.234 13.963-2.241l34.932-48.285c3.698-5.109 10.709-6.376 15.96-2.883 5.252 3.493 6.779 10.672 3.405 16.001l-32.94 52.021c-.776 1.224-1.276 2.604-1.465 4.041z"/><circle cx="163.67" cy="209.2" r="10"/></g></g></svg>