<svg id="_x31_3_Sunrise_2_" enable-background="new 0 0 512 512" height="512" viewBox="0 0 512 512" width="512" xmlns="http://www.w3.org/2000/svg"><g id="_x31_3_Sunrise"><g id="_x31_3_Sunrise_1_"><path d="m399 353.6c0 18.5-3.5 36.2-9.9 52.4h-266.6c-6.4-16.2-9.9-33.8-9.9-52.4 0-79.3 64.2-143.3 143.3-143.3 78.9.1 143.1 64.1 143.1 143.3z" fill="#ffb800"/><g><path d="m255.7 138.5c-5.9 0-10.7 4.8-10.7 10.7v25.6c0 5.9 4.8 10.7 10.7 10.7s10.7-4.8 10.7-10.7v-25.6c0-5.9-4.8-10.7-10.7-10.7z"/><path d="m156.7 204.4c2.9 5.1 9.5 6.8 14.6 3.9s6.8-9.5 3.9-14.6l-12.9-22.3c-2.9-5.1-9.5-6.8-14.6-3.9s-6.8 9.5-3.9 14.6z"/><path d="m72.5 261.2 22.7 13.1c5.1 2.9 11.6 1.2 14.6-3.9 2.9-5.1 1.2-11.6-3.9-14.6l-22.7-13.1c-5.1-2.9-11.6-1.2-14.6 3.9-3 5.2-1.2 11.7 3.9 14.6z"/><path d="m423.9 354.7c0 5.9 4.8 10.7 10.7 10.7h24.3c5.9 0 10.7-4.8 10.7-10.7s-4.8-10.7-10.7-10.7h-24.3c-5.9 0-10.7 4.8-10.7 10.7z"/><path d="m50.2 365.4h26.7c5.9 0 10.7-4.8 10.7-10.7s-4.8-10.7-10.7-10.7h-26.7c-5.9 0-10.7 4.8-10.7 10.7s4.9 10.7 10.7 10.7z"/><path d="m416.3 274.3 20.7-11.9c5.1-2.9 6.9-9.5 3.9-14.6s-9.5-6.9-14.6-3.9l-20.7 11.9c-5.1 2.9-6.9 9.5-3.9 14.6s9.6 6.8 14.6 3.9z"/><path d="m340.3 208.4c5.1 3 11.6 1.2 14.6-3.9l11.7-20.3c7-12.2-11.4-22.9-18.5-10.7l-11.7 20.3c-3 5.1-1.2 11.6 3.9 14.6z"/><path d="m501.3 395.3h-97.4c3.8-13.5 5.8-27.5 5.8-41.7 0-84.9-69-153.9-153.9-153.9s-153.9 69-153.9 153.9c0 14.2 1.9 28.2 5.8 41.7h-97c-5.9 0-10.7 4.8-10.7 10.7s4.8 10.7 10.7 10.7h490.7c5.9 0 10.7-4.8 10.7-10.7-.1-5.9-4.9-10.7-10.8-10.7zm-371.4 0c-4.5-13.4-6.7-27.4-6.7-41.7 0-73.1 59.5-132.6 132.6-132.6s132.6 59.5 132.6 132.6c0 14.3-2.3 28.3-6.7 41.7z"/><path d="m434.6 443h-357.1c-5.9 0-10.7 4.8-10.7 10.7s4.8 10.7 10.7 10.7h357.1c5.9 0 10.7-4.8 10.7-10.7s-4.9-10.7-10.7-10.7z"/><path d="m350.6 490.7h-189.1c-5.9 0-10.7 4.8-10.7 10.7s4.8 10.7 10.7 10.7h189.1c5.9 0 10.7-4.8 10.7-10.7s-4.8-10.7-10.7-10.7z"/><path d="m233.2 48.5 12.1-12.1v64.2c0 5.9 4.8 10.7 10.7 10.7s10.7-4.8 10.7-10.7v-64.2l12.2 12.1c4.2 4.2 10.9 4.1 15.1 0 4.2-4.2 4.1-10.9 0-15.1l-30.1-30c-2.1-2.3-5-3.4-7.8-3.4-2.7 0-5.5 1-7.6 3.1l-30.3 30.3c-4.2 4.2-4.2 10.9 0 15.1 4.1 4.2 10.8 4.2 15 0z"/></g></g></g></svg>