<svg id="_x33_0_Sunset_2_" enable-background="new 0 0 512 512" height="512" viewBox="0 0 512 512" width="512" xmlns="http://www.w3.org/2000/svg"><g id="_x33_0_Sunset"><g id="_x33_0_Sunset_1_"><path d="m395.2 384.7h-278.8c14.8-63.4 71.7-110.3 139.4-110.3s124.6 46.9 139.4 110.3z" fill="#ffb800"/><g><path d="m255.7 202.5c-5.9 0-10.7 4.8-10.7 10.7v25.6c0 5.9 4.8 10.7 10.7 10.7s10.7-4.8 10.7-10.7v-25.6c0-5.9-4.8-10.7-10.7-10.7z"/><path d="m156.6 268.4c2.9 5.1 9.5 6.8 14.6 3.9s6.8-9.5 3.9-14.6l-12.9-22.3c-2.9-5.1-9.5-6.9-14.6-3.9-5.1 2.9-6.8 9.5-3.9 14.6z"/><path d="m72.4 325.2 22.7 13.1c5.1 3 11.6 1.2 14.6-3.9 2.9-5.1 1.2-11.6-3.9-14.6l-22.7-13.1c-5.1-2.9-11.6-1.2-14.6 3.9-2.9 5.2-1.2 11.7 3.9 14.6z"/><path d="m416.3 338.3 20.7-11.9c5.1-2.9 6.9-9.5 3.9-14.6-2.9-5.1-9.4-6.9-14.6-3.9l-20.7 11.9c-5.1 2.9-6.9 9.5-3.9 14.6s9.5 6.8 14.6 3.9z"/><path d="m340.3 272.4c5.1 3 11.6 1.2 14.6-3.9l11.7-20.3c2.9-5.1 1.2-11.6-3.9-14.6-5.1-2.9-11.6-1.2-14.6 3.9l-11.7 20.3c-3 5.1-1.2 11.6 3.9 14.6z"/><path d="m501.3 374h-98c-19.1-65.3-78.5-110.3-147.5-110.3s-128.4 45-147.5 110.3h-97.6c-5.9 0-10.7 4.8-10.7 10.7s4.8 10.7 10.7 10.7h490.7c5.9 0 10.7-4.8 10.7-10.7s-4.9-10.7-10.8-10.7zm-370.8 0c18.2-53 68-89 125.3-89s107 36 125.3 89z"/><path d="m434.5 421.7h-357c-5.9 0-10.7 4.8-10.7 10.7s4.8 10.7 10.7 10.7h357.1c5.9 0 10.7-4.8 10.7-10.7-.1-6-4.9-10.7-10.8-10.7z"/><path d="m350.5 469.3h-189.1c-5.9 0-10.7 4.8-10.7 10.7s4.8 10.7 10.7 10.7h189.1c5.9 0 10.7-4.8 10.7-10.7s-4.8-10.7-10.7-10.7z"/><path d="m248.2 129.1c4.1 4.4 11.1 4.5 15.4.3l30.3-30.3c4.2-4.2 4.2-10.9 0-15.1s-10.9-4.2-15.1 0l-12.1 12.1v-64.1c0-5.9-4.8-10.7-10.7-10.7s-10.7 4.8-10.7 10.7v64.1l-12.1-12.1c-4.2-4.2-10.9-4.2-15.1 0s-4.1 10.9 0 15.1z"/></g></g></g></svg>