<?xml version="1.0" encoding="UTF-8" standalone="no"?>
<!-- Created with Inkscape (http://www.inkscape.org/) -->

<svg
   version="1.1"
   id="svg2502"
   xml:space="preserve"
   width="682.66669"
   height="682.66669"
   viewBox="0 0 682.66669 682.66669"
   xmlns="http://www.w3.org/2000/svg"
   xmlns:svg="http://www.w3.org/2000/svg"><defs
     id="defs2506"><clipPath
       clipPathUnits="userSpaceOnUse"
       id="clipPath2516"><path
         d="M 0,512 H 512 V 0 H 0 Z"
         id="path2514" /></clipPath></defs><g
     id="g2508"
     transform="matrix(1.3333333,0,0,-1.3333333,0,682.66667)"><g
       id="g2510"><g
         id="g2512"
         clip-path="url(#clipPath2516)"><g
           id="g2518"
           transform="translate(377,336)"><path
             d="M 0,0 C 0,33.137 26.863,60 60,60 93.137,60 120,33.137 120,0 120,-33.137 93.137,-60 60,-60 H -80"
             style="fill:none;stroke:currentColor;stroke-width:30;stroke-linecap:round;stroke-linejoin:round;stroke-miterlimit:10;stroke-dasharray:none;stroke-opacity:1"
             id="path2520" /></g><g
           id="g2522"
           transform="translate(257,96)"><path
             d="m 0,0 c 0,-33.137 26.863,-60 60,-60 33.137,0 60,26.863 60,60 0,33.137 -26.863,60 -60,60 h -260"
             style="fill:none;stroke:currentColor;stroke-width:30;stroke-linecap:round;stroke-linejoin:round;stroke-miterlimit:10;stroke-dasharray:none;stroke-opacity:1"
             id="path2524" /></g><g
           id="g2526"
           transform="translate(15,216)"><path
             d="M 0,0 H 62"
             style="fill:none;stroke:currentColor;stroke-width:30;stroke-linecap:round;stroke-linejoin:round;stroke-miterlimit:10;stroke-dasharray:none;stroke-opacity:1"
             id="path2528" /></g><g
           id="g2530"
           transform="translate(95,95)"><path
             d="M 0,0 40,-40 0,-80"
             style="fill:none;stroke:currentColor;stroke-width:30;stroke-linecap:round;stroke-linejoin:round;stroke-miterlimit:10;stroke-dasharray:none;stroke-opacity:1"
             id="path2532" /></g><g
           id="g2534"
           transform="translate(135,55)"><path
             d="M 0,0 H -120"
             style="fill:none;stroke:currentColor;stroke-width:30;stroke-linecap:round;stroke-linejoin:round;stroke-miterlimit:10;stroke-dasharray:none;stroke-opacity:1"
             id="path2536" /></g><g
           id="g2538"
           transform="translate(237,276)"><path
             d="M 0,0 H -40"
             style="fill:none;stroke:currentColor;stroke-width:30;stroke-linecap:round;stroke-linejoin:round;stroke-miterlimit:10;stroke-dasharray:none;stroke-opacity:1"
             id="path2540" /></g><g
           id="g2542"
           transform="translate(241.1094,412.0722)"><path
             d="m 0,0 c -31.242,-31.242 -84.853,-28.284 -84.853,-28.284 0,0 -2.957,53.611 28.284,84.853 31.242,31.241 84.853,28.284 84.853,28.284 0,0 2.958,-53.611 -28.284,-84.853 z"
             style="fill:none;stroke:currentColor;stroke-width:30;stroke-linecap:round;stroke-linejoin:round;stroke-miterlimit:10;stroke-dasharray:none;stroke-opacity:1"
             id="path2544" /></g><g
           id="g2546"
           transform="translate(156.2566,383.788)"><path
             d="M 0,0 C -15.634,-15.634 -15.634,-40.935 0,-56.569"
             style="fill:none;stroke:currentColor;stroke-width:30;stroke-linecap:round;stroke-linejoin:round;stroke-miterlimit:10;stroke-dasharray:none;stroke-opacity:1"
             id="path2548" /></g><g
           id="g2550"
           transform="translate(137,216)"><path
             d="M 0,0 H 230"
             style="fill:none;stroke:currentColor;stroke-width:30;stroke-linecap:round;stroke-linejoin:round;stroke-miterlimit:10;stroke-dasharray:none;stroke-opacity:1"
             id="path2552" /></g></g></g></g></svg>
